<?xml version="1.0" encoding="UTF-8" standalone="no"?><svg xmlns="http://www.w3.org/2000/svg" xmlns:xlink="http://www.w3.org/1999/xlink" contentScriptType="application/ecmascript" contentStyleType="text/css" height="553px" preserveAspectRatio="none" style="width:684px;height:553px;" version="1.1" viewBox="0 0 684 553" width="684px" zoomAndPan="magnify"><defs/><g><!--cluster Google Kubernetes Cluster--><path d="M17,106 C17,103 19,101 22,101 C25,101 27,103 27,106 C27,103 29,101 32,101 C35,101 37,103 37,106 C37,103 39,101 42,101 C45,101 47,103 47,106 C47,103 49,101 52,101 C55,101 57,103 57,106 C57,103 59,101 62,101 C65,101 67,103 67,106 C67,103 69,101 72,101 C75,101 77,103 77,106 C77,103 79,101 82,101 C85,101 87,103 87,106 C87,103 89,101 92,101 C95,101 97,103 97,106 C97,103 99,101 102,101 C105,101 107,103 107,106 C107,103 109,101 112,101 C115,101 117,103 117,106 C117,103 119,101 122,101 C125,101 127,103 127,106 C127,103 129,101 132,101 C135,101 137,103 137,106 C137,103 139,101 142,101 C145,101 147,103 147,106 C147,103 149,101 152,101 C155,101 157,103 157,106 C157,103 159,101 162,101 C165,101 167,103 167,106 C167,103 169,101 172,101 C175,101 177,103 177,106 C177,103 179,101 182,101 C185,101 187,103 187,106 C187,103 189,101 192,101 C195,101 197,103 197,106 C197,103 199,101 202,101 C205,101 207,103 207,106 C207,103 209,101 212,101 C215,101 217,103 217,106 C217,103 219,101 222,101 C225,101 227,103 227,106 C227,103 229,101 232,101 C235,101 237,103 237,106 C237,103 239,101 242,101 C245,101 247,103 247,106 C247,103 249,101 252,101 C255,101 257,103 257,106 C257,103 259,101 262,101 C265,101 267,103 267,106 C267,103 269,101 272,101 C275,101 277,103 277,106 C277,103 279,101 282,101 C285,101 287,103 287,106 C287,103 289,101 292,101 C295,101 297,103 297,106 C297,103 299,101 302,101 C305,101 307,103 307,106 C307,103 309,101 312,101 C315,101 317,103 317,106 C317,103 319,101 322,101 C325,101 327,103 327,106 C327,103 329,101 332,101 C335,101 337,103 337,106 C337,103 339,101 342,101 C345,101 347,103 347,106 C347,103 349,101 352,101 C355,101 357,103 357,106 C357,103 359,101 362,101 C365,101 367,103 367,106 C367,103 369,101 372,101 C375,101 377,103 377,106 C377,103 379,101 382,101 C385,101 387,103 387,106 C387,103 389,101 392,101 C395,101 397,103 397,106 C397,103 399,101 402,101 C405,101 407,103 407,106 C407,103 409,101 412,101 C415,101 417,103 417,106 C417,103 419,101 422,101 C425,101 427,103 427,106 C427,103 429,101 432,101 C435,101 437,103 437,106 C437,103 439,101 442,101 C445,101 447,103 447,106 C447,103 449,101 452,101 C455,101 457,103 457,106 C457,103 459,101 462,101 C465,101 467,103 467,106 C467,103 469,101 472,101 C475,101 477,103 477,106 C477,103 479,101 482,101 C485,101 487,103 487,106 C487,103 489,101 492,101 C495,101 497,103 497,106 C497,103 499,101 502,101 C505,101 507,103 507,106 C507,103 509,101 512,101 C515,101 517,103 517,106 C517,103 519,101 522,101 C525,101 527,103 527,106 C527,103 529,101 532,101 C535,101 537,103 537,106 C537,103 539,101 542,101 C545,101 547,103 547,106 C547,103 549,101 552,101 C555,101 557,103 557,106 C557,103 559,101 562,101 C565,101 567,103 567,106 C567,103 569,101 572,101 C575,101 577,103 577,106 C577,103 579,101 582,101 C585,101 587,103 587,106 C587,103 589,101 592,101 C595,101 597,103 597,106 C597,103 599,101 602,101 C605,101 607,103 607,106 C607,103 609,101 612,101 C615,101 617,103 617,106 C617,103 619,101 622,101 C625,101 627,103 627,106 C627,103 629,101 632,101 C635,101 637,103 637,106 C637,103 639,101 642,101 C645,101 647,103 647,106 C647,103 649,101 652,101 C655,101 657,103 657,106 C657,103 659,101 662,101 C665,101 667,103 667,106 C670,106 672,108 672,111 C672,114 670,116 667,116 C670,116 672,118 672,121 C672,124 670,126 667,126 C670,126 672,128 672,131 C672,134 670,136 667,136 C670,136 672,138 672,141 C672,144 670,146 667,146 C670,146 672,148 672,151 C672,154 670,156 667,156 C670,156 672,158 672,161 C672,164 670,166 667,166 C670,166 672,168 672,171 C672,174 670,176 667,176 C670,176 672,178 672,181 C672,184 670,186 667,186 C670,186 672,188 672,191 C672,194 670,196 667,196 C670,196 672,198 672,201 C672,204 670,206 667,206 C670,206 672,208 672,211 C672,214 670,216 667,216 C670,216 672,218 672,221 C672,224 670,226 667,226 C670,226 672,228 672,231 C672,234 670,236 667,236 C670,236 672,238 672,241 C672,244 670,246 667,246 C670,246 672,248 672,251 C672,254 670,256 667,256 C670,256 672,258 672,261 C672,264 670,266 667,266 C670,266 672,268 672,271 C672,274 670,276 667,276 C670,276 672,278 672,281 C672,284 670,286 667,286 C670,286 672,288 672,291 C672,294 670,296 667,296 C670,296 672,298 672,301 C672,304 670,306 667,306 C670,306 672,308 672,311 C672,314 670,316 667,316 C670,316 672,318 672,321 C672,324 670,326 667,326 C670,326 672,328 672,331 C672,334 670,336 667,336 C670,336 672,338 672,341 C672,344 670,346 667,346 C670,346 672,348 672,351 C672,354 670,356 667,356 C670,356 672,358 672,361 C672,364 670,366 667,366 C670,366 672,368 672,371 C672,374 670,376 667,376 C670,376 672,378 672,381 C672,384 670,386 667,386 C670,386 672,388 672,391 C672,394 670,396 667,396 C670,396 672,398 672,401 C672,404 670,406 667,406 C670,406 672,408 672,411 C672,414 670,416 667,416 C670,416 672,418 672,421 C672,424 670,426 667,426 C670,426 672,428 672,431 C672,434 670,436 667,436 C670,436 672,438 672,441 C672,444 670,446 667,446 C670,446 672,448 672,451 C672,454 670,456 667,456 C670,456 672,458 672,461 C672,464 670,466 667,466 C670,466 672,468 672,471 C672,474 670,476 667,476 C670,476 672,478 672,481 C672,484 670,486 667,486 C670,486 672,488 672,491 C672,494 670,496 667,496 C670,496 672,498 672,501 C672,504 670,506 667,506 C670,506 672,508 672,511 C672,514 670,516 667,516 C670,516 672,518 672,521 C672,524 670,526 667,526 C670,526 672,528 672,531 C672,534 670,536 667,536 C667,539 664,541 662,541 C659,541 657,539 657,536 C657,539 654,541 652,541 C649,541 647,539 647,536 C647,539 644,541 642,541 C639,541 637,539 637,536 C637,539 634,541 632,541 C629,541 627,539 627,536 C627,539 624,541 622,541 C619,541 617,539 617,536 C617,539 614,541 612,541 C609,541 607,539 607,536 C607,539 604,541 602,541 C599,541 597,539 597,536 C597,539 594,541 592,541 C589,541 587,539 587,536 C587,539 584,541 582,541 C579,541 577,539 577,536 C577,539 574,541 572,541 C569,541 567,539 567,536 C567,539 564,541 562,541 C559,541 557,539 557,536 C557,539 554,541 552,541 C549,541 547,539 547,536 C547,539 544,541 542,541 C539,541 537,539 537,536 C537,539 534,541 532,541 C529,541 527,539 527,536 C527,539 524,541 522,541 C519,541 517,539 517,536 C517,539 514,541 512,541 C509,541 507,539 507,536 C507,539 504,541 502,541 C499,541 497,539 497,536 C497,539 494,541 492,541 C489,541 487,539 487,536 C487,539 484,541 482,541 C479,541 477,539 477,536 C477,539 474,541 472,541 C469,541 467,539 467,536 C467,539 464,541 462,541 C459,541 457,539 457,536 C457,539 454,541 452,541 C449,541 447,539 447,536 C447,539 444,541 442,541 C439,541 437,539 437,536 C437,539 434,541 432,541 C429,541 427,539 427,536 C427,539 424,541 422,541 C419,541 417,539 417,536 C417,539 414,541 412,541 C409,541 407,539 407,536 C407,539 404,541 402,541 C399,541 397,539 397,536 C397,539 394,541 392,541 C389,541 387,539 387,536 C387,539 384,541 382,541 C379,541 377,539 377,536 C377,539 374,541 372,541 C369,541 367,539 367,536 C367,539 364,541 362,541 C359,541 357,539 357,536 C357,539 354,541 352,541 C349,541 347,539 347,536 C347,539 344,541 342,541 C339,541 337,539 337,536 C337,539 334,541 332,541 C329,541 327,539 327,536 C327,539 324,541 322,541 C319,541 317,539 317,536 C317,539 314,541 312,541 C309,541 307,539 307,536 C307,539 304,541 302,541 C299,541 297,539 297,536 C297,539 294,541 292,541 C289,541 287,539 287,536 C287,539 284,541 282,541 C279,541 277,539 277,536 C277,539 274,541 272,541 C269,541 267,539 267,536 C267,539 264,541 262,541 C259,541 257,539 257,536 C257,539 254,541 252,541 C249,541 247,539 247,536 C247,539 244,541 242,541 C239,541 237,539 237,536 C237,539 234,541 232,541 C229,541 227,539 227,536 C227,539 224,541 222,541 C219,541 217,539 217,536 C217,539 214,541 212,541 C209,541 207,539 207,536 C207,539 204,541 202,541 C199,541 197,539 197,536 C197,539 194,541 192,541 C189,541 187,539 187,536 C187,539 184,541 182,541 C179,541 177,539 177,536 C177,539 174,541 172,541 C169,541 167,539 167,536 C167,539 164,541 162,541 C159,541 157,539 157,536 C157,539 154,541 152,541 C149,541 147,539 147,536 C147,539 144,541 142,541 C139,541 137,539 137,536 C137,539 134,541 132,541 C129,541 127,539 127,536 C127,539 124,541 122,541 C119,541 117,539 117,536 C117,539 114,541 112,541 C109,541 107,539 107,536 C107,539 104,541 102,541 C99,541 97,539 97,536 C97,539 94,541 92,541 C89,541 87,539 87,536 C87,539 84,541 82,541 C79,541 77,539 77,536 C77,539 74,541 72,541 C69,541 67,539 67,536 C67,539 64,541 62,541 C59,541 57,539 57,536 C57,539 54,541 52,541 C49,541 47,539 47,536 C47,539 44,541 42,541 C39,541 37,539 37,536 C37,539 34,541 32,541 C29,541 27,539 27,536 C27,539 24,541 22,541 C19,541 17,539 17,536 C14,536 12,534 12,531 C12,528 14,526 17,526 C14,526 12,524 12,521 C12,518 14,516 17,516 C14,516 12,514 12,511 C12,508 14,506 17,506 C14,506 12,504 12,501 C12,498 14,496 17,496 C14,496 12,494 12,491 C12,488 14,486 17,486 C14,486 12,484 12,481 C12,478 14,476 17,476 C14,476 12,474 12,471 C12,468 14,466 17,466 C14,466 12,464 12,461 C12,458 14,456 17,456 C14,456 12,454 12,451 C12,448 14,446 17,446 C14,446 12,444 12,441 C12,438 14,436 17,436 C14,436 12,434 12,431 C12,428 14,426 17,426 C14,426 12,424 12,421 C12,418 14,416 17,416 C14,416 12,414 12,411 C12,408 14,406 17,406 C14,406 12,404 12,401 C12,398 14,396 17,396 C14,396 12,394 12,391 C12,388 14,386 17,386 C14,386 12,384 12,381 C12,378 14,376 17,376 C14,376 12,374 12,371 C12,368 14,366 17,366 C14,366 12,364 12,361 C12,358 14,356 17,356 C14,356 12,354 12,351 C12,348 14,346 17,346 C14,346 12,344 12,341 C12,338 14,336 17,336 C14,336 12,334 12,331 C12,328 14,326 17,326 C14,326 12,324 12,321 C12,318 14,316 17,316 C14,316 12,314 12,311 C12,308 14,306 17,306 C14,306 12,304 12,301 C12,298 14,296 17,296 C14,296 12,294 12,291 C12,288 14,286 17,286 C14,286 12,284 12,281 C12,278 14,276 17,276 C14,276 12,274 12,271 C12,268 14,266 17,266 C14,266 12,264 12,261 C12,258 14,256 17,256 C14,256 12,254 12,251 C12,248 14,246 17,246 C14,246 12,244 12,241 C12,238 14,236 17,236 C14,236 12,234 12,231 C12,228 14,226 17,226 C14,226 12,224 12,221 C12,218 14,216 17,216 C14,216 12,214 12,211 C12,208 14,206 17,206 C14,206 12,204 12,201 C12,198 14,196 17,196 C14,196 12,194 12,191 C12,188 14,186 17,186 C14,186 12,184 12,181 C12,178 14,176 17,176 C14,176 12,174 12,171 C12,168 14,166 17,166 C14,166 12,164 12,161 C12,158 14,156 17,156 C14,156 12,154 12,151 C12,148 14,146 17,146 C14,146 12,144 12,141 C12,138 14,136 17,136 C14,136 12,134 12,131 C12,128 14,126 17,126 C14,126 12,124 12,121 C12,118 14,116 17,116 C14,116 12,114 12,111 C12,108 14,106 17,106 " fill="#ECF0F1" style="stroke: #95A5A6; stroke-width: 1.5;"/><text fill="#95A5A6" font-family="Roboto" font-size="14" font-weight="bold" lengthAdjust="spacingAndGlyphs" textLength="213" x="233" y="126.9951">Google Kubernetes Cluster</text><!--cluster dwbservices--><polygon fill="#FFFFFF" points="22,253.5,32,243.5,275,243.5,275,428,265,438,22,438,22,253.5" style="stroke: #3498DB; stroke-width: 1.5;"/><line style="stroke: #3498DB; stroke-width: 1.5;" x1="265" x2="274" y1="253.5" y2="244.5"/><line style="stroke: #3498DB; stroke-width: 1.5;" x1="22" x2="265" y1="253.5" y2="253.5"/><line style="stroke: #3498DB; stroke-width: 1.5;" x1="265" x2="265" y1="253.5" y2="438"/><text fill="#3498DB" font-family="Roboto" font-size="14" lengthAdjust="spacingAndGlyphs" textLength="173" x="58" y="271.4951">DataWorkbench Services</text><!--cluster validatorengine--><polygon fill="#FFFFFF" points="283,140,293,130,657,130,657,319,647,329,283,329,283,140" style="stroke: #3498DB; stroke-width: 1.5;"/><line style="stroke: #3498DB; stroke-width: 1.5;" x1="647" x2="656" y1="140" y2="131"/><line style="stroke: #3498DB; stroke-width: 1.5;" x1="283" x2="647" y1="140" y2="140"/><line style="stroke: #3498DB; stroke-width: 1.5;" x1="647" x2="647" y1="140" y2="329"/><text fill="#3498DB" font-family="Roboto" font-size="14" lengthAdjust="spacingAndGlyphs" textLength="111" x="410.5" y="157.9951">Validator Engine</text><!--cluster Google Cloud--><rect fill="#FFFFFF" height="79" style="stroke: #F39C12; stroke-width: 1.5;" width="629" x="25" y="459"/><text fill="#F39C12" font-family="Roboto" font-size="14" font-weight="bold" lengthAdjust="spacingAndGlyphs" textLength="106" x="286.5" y="475.9951">Google Cloud</text><!--entity Ingress--><path d="M163.5,170 L163.5,194 M163.5,182 L180.5,182 " fill="none" style="stroke: #E74C3C; stroke-width: 2.0;"/><ellipse cx="192.5" cy="182" fill="#FFFFFF" rx="12" ry="12" style="stroke: #E74C3C; stroke-width: 2.0;"/><text fill="#2C3E50" font-family="Roboto" font-size="14" lengthAdjust="spacingAndGlyphs" textLength="51" x="158.5" y="212.9951">Ingress</text><!--entity frontend--><rect fill="#18BC9C" height="40.2969" style="stroke: #0F7864; stroke-width: 1.5;" width="92" x="94" y="279.5"/><rect fill="#18BC9C" height="5" style="stroke: #0F7864; stroke-width: 1.5;" width="10" x="89" y="284.5"/><rect fill="#18BC9C" height="5" style="stroke: #0F7864; stroke-width: 1.5;" width="10" x="89" y="309.7969"/><text fill="#FFFFFF" font-family="Roboto" font-size="14" lengthAdjust="spacingAndGlyphs" textLength="68" x="106" y="304.4951">Front-end</text><!--entity mongo--><path d="M100,391 C100,381 136,381 136,381 C136,381 172,381 172,391 L172,420.2969 C172,430.2969 136,430.2969 136,430.2969 C136,430.2969 100,430.2969 100,420.2969 L100,391 " fill="#18BC9C" style="stroke: #0F7864; stroke-width: 1.5;"/><path d="M100,391 C100,401 136,401 136,401 C136,401 172,401 172,391 " fill="none" style="stroke: #0F7864; stroke-width: 1.5;"/><text fill="#FFFFFF" font-family="Roboto" font-size="14" lengthAdjust="spacingAndGlyphs" textLength="48" x="112" y="419.9951">Mongo</text><!--entity API--><rect fill="#18BC9C" height="40.2969" style="stroke: #0F7864; stroke-width: 1.5;" width="45" x="221.5" y="279.5"/><rect fill="#18BC9C" height="5" style="stroke: #0F7864; stroke-width: 1.5;" width="10" x="216.5" y="284.5"/><rect fill="#18BC9C" height="5" style="stroke: #0F7864; stroke-width: 1.5;" width="10" x="216.5" y="309.7969"/><text fill="#FFFFFF" font-family="Roboto" font-size="14" lengthAdjust="spacingAndGlyphs" textLength="21" x="233.5" y="304.4951">API</text><!--entity Snapshot--><polygon fill="#FFFFFF" points="484,278,560,278,567,304.2969,584,304.2969,584,321.2969,484,321.2969,484,278" style="stroke: #18BC9C; stroke-width: 1.5;"/><line style="stroke: #18BC9C; stroke-width: 1.5;" x1="484" x2="567" y1="304.2969" y2="304.2969"/><text fill="#2C3E50" font-family="Roboto" font-size="14" lengthAdjust="spacingAndGlyphs" textLength="66" x="490" y="295.9951">Snapshot</text><!--entity Workspace--><polygon fill="#FFFFFF" points="330.5,278,417.5,278,424.5,304.2969,441.5,304.2969,441.5,321.2969,330.5,321.2969,330.5,278" style="stroke: #18BC9C; stroke-width: 1.5;"/><line style="stroke: #18BC9C; stroke-width: 1.5;" x1="330.5" x2="424.5" y1="304.2969" y2="304.2969"/><text fill="#2C3E50" font-family="Roboto" font-size="14" lengthAdjust="spacingAndGlyphs" textLength="77" x="336.5" y="295.9951">Workspace</text><!--entity validator--><ellipse cx="468" cy="182" fill="#FFFFFF" rx="12" ry="12" style="stroke: #E74C3C; stroke-width: 2.0;"/><polygon fill="#E74C3C" points="464,170,470,165,468,170,470,175,464,170" style="stroke: #E74C3C; stroke-width: 1.0;"/><text fill="#2C3E50" font-family="Roboto" font-size="14" lengthAdjust="spacingAndGlyphs" textLength="87" x="424.5" y="212.9951">IATI Validator</text><!--entity refresher--><ellipse cx="599" cy="182" fill="#FFFFFF" rx="12" ry="12" style="stroke: #E74C3C; stroke-width: 2.0;"/><polygon fill="#E74C3C" points="595,170,601,165,599,170,601,175,595,170" style="stroke: #E74C3C; stroke-width: 1.0;"/><text fill="#2C3E50" font-family="Roboto" font-size="14" lengthAdjust="spacingAndGlyphs" textLength="96" x="551" y="212.9951">IATI Refresher</text><!--entity Cleanup--><ellipse cx="357" cy="182" fill="#FFFFFF" rx="12" ry="12" style="stroke: #E74C3C; stroke-width: 2.0;"/><polygon fill="#E74C3C" points="353,170,359,165,357,170,359,175,353,170" style="stroke: #E74C3C; stroke-width: 1.0;"/><text fill="#2C3E50" font-family="Roboto" font-size="14" lengthAdjust="spacingAndGlyphs" textLength="57" x="328.5" y="212.9951">Cleanup</text><!--entity storage--><rect fill="#18BC9C" height="40.2969" rx="35" ry="35" style="stroke: #0F7864; stroke-width: 1.5;" width="104" x="202" y="490"/><text fill="#FFFFFF" font-family="Roboto" font-size="14" lengthAdjust="spacingAndGlyphs" textLength="80" x="214" y="514.9951">File storage</text><!--entity pd--><rect fill="#18BC9C" height="40.2969" rx="35" ry="35" style="stroke: #0F7864; stroke-width: 1.5;" width="134" x="33" y="490"/><text fill="#FFFFFF" font-family="Roboto" font-size="14" lengthAdjust="spacingAndGlyphs" textLength="110" x="45" y="514.9951">Persistent disks</text><!--entity repositories--><rect fill="#18BC9C" height="40.2969" rx="35" ry="35" style="stroke: #0F7864; stroke-width: 1.5;" width="134" x="512" y="490"/><text fill="#FFFFFF" font-family="Roboto" font-size="14" lengthAdjust="spacingAndGlyphs" textLength="110" x="524" y="514.9951">Code repository</text><!--entity pubsub--><path d="M346,495 L472,495 C477,495 477,510.1484 477,510.1484 C477,510.1484 477,525.2969 472,525.2969 L346,525.2969 C341,525.2969 341,510.1484 341,510.1484 C341,510.1484 341,495 346,495 " fill="#18BC9C" style="stroke: #0F7864; stroke-width: 1.5;"/><path d="M472,495 C467,495 467,510.1484 467,510.1484 C467,525.2969 472,525.2969 472,525.2969 " fill="none" style="stroke: #0F7864; stroke-width: 1.5;"/><text fill="#FFFFFF" font-family="Roboto" font-size="14" lengthAdjust="spacingAndGlyphs" textLength="112" x="348" y="514.9951">Message queue</text><!--entity User--><ellipse cx="184" cy="18" fill="#FFFFFF" rx="8" ry="8" style="stroke: #2C3E50; stroke-width: 2.0;"/><path d="M184,26 L184,53 M171,34 L197,34 M184,53 L171,68 M184,53 L197,68 " fill="none" style="stroke: #2C3E50; stroke-width: 2.0;"/><text fill="#2C3E50" font-family="Roboto" font-size="14" lengthAdjust="spacingAndGlyphs" textLength="32" x="168" y="85.9951">User</text><!--entity iati--><ellipse cx="599" cy="49.5" fill="#FFFFFF" rx="8" ry="8" style="stroke: #E74C3C; stroke-width: 2.0;"/><text fill="#2C3E50" font-family="Roboto" font-size="14" lengthAdjust="spacingAndGlyphs" textLength="84" x="557" y="81.4951">IATI Registry</text><!--link frontend to API--><path d="M186.3125,299.5 C196.2909,299.5 206.2693,299.5 216.2477,299.5 " fill="none" id="frontend-API" style="stroke: #2C3E50; stroke-width: 1.0;"/><polygon fill="#2C3E50" points="221.4658,299.5,212.4658,295.5,216.4658,299.5,212.4658,303.5,221.4658,299.5" style="stroke: #2C3E50; stroke-width: 1.0;"/><!--link API to mongo--><path d="M223.4318,319.6873 C205.6834,337.1071 179.991,362.3236 161.0478,380.9161 " fill="none" id="API-mongo" style="stroke: #2C3E50; stroke-width: 1.0;"/><!--link Ingress to API--><path d="M198.5243,218.0228 C209.0676,236.9129 223.1227,262.0949 232.8024,279.4377 " fill="none" id="Ingress-API" style="stroke: #2C3E50; stroke-width: 1.0;"/><!--link Ingress to frontend--><path d="M173.3488,218.0228 C165.6171,236.9129 155.31,262.0949 148.2116,279.4377 " fill="none" id="Ingress-frontend" style="stroke: #2C3E50; stroke-width: 1.0;"/><!--link validator to Workspace--><path d="M448.1501,218.0228 C434.2149,236.2915 415.7908,260.445 402.6279,277.7013 " fill="none" id="validator-Workspace" style="stroke: #2C3E50; stroke-width: 1.0;"/><!--link refresher to Snapshot--><path d="M583.2653,218.0228 C572.2191,236.2915 557.6147,260.445 547.1806,277.7013 " fill="none" id="refresher-Snapshot" style="stroke: #2C3E50; stroke-width: 1.0;"/><!--link refresher to Workspace--><path d="M548.6591,211.3287 C513.0509,225.0514 470.9508,241.4006 467,243.5 C448.4308,253.3675 429.0066,266.6806 413.8356,277.8503 " fill="none" id="refresher-Workspace" style="stroke: #2C3E50; stroke-width: 1.0;"/><!--link Cleanup to Workspace--><path d="M364.0201,218.0228 C368.9484,236.2915 375.4642,260.445 380.1194,277.7013 " fill="none" id="Cleanup-Workspace" style="stroke: #2C3E50; stroke-width: 1.0;"/><!--link validatorengine to API--><path d="M282.9486,226.9115 C282.9175,226.9742 282.8863,227.0371 282.855,227.1002 C282.7296,227.3527 282.6021,227.6089 282.4724,227.8686 C282.2129,228.3881 281.9449,228.9219 281.6689,229.4691 C281.1168,230.5634 280.5325,231.7112 279.9203,232.9048 C278.6959,235.2921 277.3599,237.863 275.9465,240.5575 C270.2931,251.3352 263.4026,264.089 257.4701,274.9716 " fill="none" id="validatorengine-API" style="stroke: #2C3E50; stroke-width: 1.0;"/><polygon fill="#2C3E50" points="255.0028,279.4914,262.8262,273.5086,257.3987,275.1028,255.8045,269.6752,255.0028,279.4914" style="stroke: #2C3E50; stroke-width: 1.0;"/><!--link mongo to pd--><path d="M127.5596,430.0006 C121.8718,446.5112 114.3899,468.2294 108.6572,484.8701 " fill="none" id="mongo-pd" style="stroke: #2C3E50; stroke-width: 1.0;"/><polygon fill="#2C3E50" points="106.9382,489.8601,113.6515,482.6537,108.5667,485.1327,106.0877,480.048,106.9382,489.8601" style="stroke: #2C3E50; stroke-width: 1.0;"/><!--link refresher to pubsub--><path d="M605.837,218.2313 C611.8802,246.7607 617.5543,293.0886 602,329 C568.9255,405.3617 486.0147,464.2869 440.3624,492.2146 " fill="none" id="refresher-pubsub" style="stroke: #2C3E50; stroke-width: 1.0;"/><polygon fill="#2C3E50" points="436.0637,494.82,445.8336,493.5756,440.3396,492.2283,441.6869,486.7342,436.0637,494.82" style="stroke: #2C3E50; stroke-width: 1.0;"/><!--link API to storage--><path d="M244.9588,319.6836 C246.7919,358.2685 250.7892,442.4116 252.7976,484.6894 " fill="none" id="API-storage" style="stroke: #2C3E50; stroke-width: 1.0;"/><polygon fill="#2C3E50" points="253.0441,489.8775,256.6122,480.6977,252.8067,484.8831,248.6212,481.0776,253.0441,489.8775" style="stroke: #2C3E50; stroke-width: 1.0;"/><!--link API to pubsub--><path d="M259.8209,319.6836 C291.5734,360.1921 362.686,450.9146 393.8636,490.6896 " fill="none" id="API-pubsub" style="stroke: #2C3E50; stroke-width: 1.0;"/><polygon fill="#2C3E50" points="397.1087,494.8296,394.7044,485.2787,394.024,490.8945,388.4082,490.2142,397.1087,494.8296" style="stroke: #2C3E50; stroke-width: 1.0;"/><!--link Workspace to storage--><path d="M372.3709,321.2344 C347.5844,360.7612 295.2947,444.1475 269.3162,485.5753 " fill="none" id="Workspace-storage" style="stroke: #2C3E50; stroke-width: 1.0;"/><polygon fill="#2C3E50" points="266.5839,489.9326,274.7541,484.4328,269.2402,485.6966,267.9764,480.1827,266.5839,489.9326" style="stroke: #2C3E50; stroke-width: 1.0;"/><!--link Snapshot to repositories--><path d="M538.6463,321.2344 C547.0449,360.5211 564.7061,443.1363 573.6162,484.8159 " fill="none" id="Snapshot-repositories" style="stroke: #2C3E50; stroke-width: 1.0;"/><polygon fill="#2C3E50" points="574.71,489.9326,576.7401,480.2952,573.6647,485.0431,568.9168,481.9677,574.71,489.9326" style="stroke: #2C3E50; stroke-width: 1.0;"/><!--link User to Ingress--><path d="M184,91.1 C184,113.3652 184,140.3321 184,160.7837 " fill="none" id="User-Ingress" style="stroke: #2C3E50; stroke-width: 1.0;"/><polygon fill="#2C3E50" points="184,165.8361,188,156.8361,184,160.8361,180,156.8361,184,165.8361" style="stroke: #2C3E50; stroke-width: 1.0;"/><!--link iati to refresher--><path d="M599,64.1247 C599,88.0662 599,135.9457 599,165.8426 " fill="none" id="iati-refresher" style="stroke: #2C3E50; stroke-width: 1.0;"/><polygon fill="#2C3E50" points="599,58.8498,595,67.8498,599,63.8498,603,67.8498,599,58.8498" style="stroke: #2C3E50; stroke-width: 1.0;"/><!--
@startuml


skinparam shadowing false

skinparam Default {
  FontColor #2C3E50
  FontName Roboto
  FontStyle normal
  TextAlignment center
}

skinparam LifelineStrategy solid

skinparam Padding 2
skinparam minClassWidth 150

skinparam Activity {
  BackgroundColor #18BC9C
  BarColor #F39C12
  BorderColor #18BC9C
  EndColor #2C3E50
  FontColor white
  StartColor #2C3E50
}

skinparam ActivityDiamond {
  BackgroundColor #F39C12
  BorderColor #F39C12
  FontColor white
}

skinparam Actor {
  BackgroundColor white
  BorderColor #2C3E50
  FontColor #2C3E50
  StereotypeFontColor #95a5a6
}

skinparam Boundary {
  BackgroundColor white
  BorderColor #E74C3C
  FontColor #2C3E50
  StereotypeFontColor #95a5a6
}

skinparam Control {
  BackgroundColor white
  BorderColor #E74C3C
  FontColor #2C3E50
  StereotypeFontColor #95a5a6
}

skinparam Entity {
  BackgroundColor white
  BorderColor #2C3E50
  FontColor #2C3E50
  StereotypeFontColor #95a5a6
}

skinparam Arrow {
  Color #2C3E50
}

skinparam Cloud {
  BackgroundColor #ecf0f1
  BorderColor #95a5a6
  FontColor #95a5a6
  FontStyle bold
  StereotypeFontColor #95a5a6
}

skinparam Frame {
  BackgroundColor white
  BorderColor #3498DB
  FontColor #2C3E50
  StereotypeFontColor #95a5a6
}

skinparam Agent {
  BackgroundColor #18BC9C
  BorderColor #0f7864
  FontColor white
  StereotypeFontColor #0f7864
}

skinparam Artifact {
  BackgroundColor #18BC9C
  BorderColor #0f7864
  FontColor white
  StereotypeFontColor #0f7864
}

skinparam Component {
  BackgroundColor #18BC9C
  BorderColor #0f7864
  FontColor white
  StereotypeFontColor #0f7864
}

skinparam Database {
  BackgroundColor #18BC9C
  BorderColor #0f7864
  FontColor white
  StereotypeFontColor #0f7864
}

skinparam File {
  BackgroundColor #18BC9C
  BorderColor #0f7864
  FontColor white
  StereotypeFontColor #0f7864
}

skinparam Stack {
  BackgroundColor #18BC9C
  BorderColor #0f7864
  FontColor white
  StereotypeFontColor #0f7864
}

skinparam Storage {
  BackgroundColor #18BC9C
  BorderColor #0f7864
  FontColor white
  StereotypeFontColor #0f7864
}

skinparam Folder {
  BackgroundColor white
  BorderColor #18BC9C
  FontColor #2C3E50
  StereotypeFontColor #95a5a6
}

skinparam Node {
  BackgroundColor white
  BorderColor #3498DB
  FontColor #3498DB
  StereotypeFontColor #95a5a6
}

skinparam Package {
  BackgroundColor white
  BorderColor #3498DB
  StereotypeFontColor #95a5a6
}

skinparam Queue {
  BackgroundColor #18BC9C
  BorderColor #0f7864
  FontColor white
  StereotypeFontColor #0f7864
}

skinparam Interface {
  BackgroundColor white
  BorderColor #E74C3C
  StereotypeFontColor #95a5a6
}

skinparam Note {
  BackgroundColor #3498DB
  BorderColor #3498DB
  FontColor white
}

skinparam Object {
  AttributeFontColor #2C3E50
  BackgroundColor #18BC9C
  BorderColor #0f7864
  EndColor #2C3E50
  FontColor white
  StereotypeFontColor #0f7864
}

skinparam Participant {
  BackgroundColor #2C3E50
  BorderColor #2C3E50
  FontColor white
}

skinparam Partition {
  BorderColor #F39C12
  FontColor #3498DB
  FontStyle normal
}

skinparam Rectangle {
  BackgroundColor white
  BorderColor #F39C12
  FontColor #F39C12
  FontStyle bold
  StereotypeFontColor #f5f7f7
}

skinparam Sequence {
  LifeLineBackgroundColor white
  LifeLineBorderColor #18BC9C

  GroupBackgroundColor #F39C12
  GroupBorderColor #F39C12
  GroupFontColor #3498DB
  GroupFontStyle normal

  GroupHeaderFontColor white
  GroupHeaderFontStyle normal

}

skinparam State {
  AttributeFontColor #2C3E50
  BackgroundColor #18BC9C
  BorderColor #0f7864
  EndColor #2C3E50
  FontColor white
  StartColor #2C3E50
}

skinparam Swimlane {
  BorderColor #3498DB
  TitleFontColor #3498DB
  TitleFontSize 13
}

skinparam Usecase {
  BackgroundColor #18BC9C
  BorderColor #18BC9C
  FontColor white
  StereotypeFontColor #0f7864
}

cloud "Google Kubernetes Cluster" {
  node "DataWorkbench Services" as dwbservices {
    component "Front-end" as frontend
    database "Mongo" as mongo
    component API

    frontend -right-> API
    API - - mongo
  }

  boundary Ingress
  Ingress - - API
  Ingress - - frontend

  node "Validator Engine" as validatorengine {
    folder Snapshot
    folder Workspace
    control "IATI Validator" as validator
    control "IATI Refresher" as refresher
    control "Cleanup"
    validator - - Workspace
    refresher - - Snapshot
    refresher - - Workspace
    Cleanup - - Workspace
  }

  rectangle "Google Cloud" {
    storage "File storage" as storage
    storage "Persistent disks" as pd
    storage "Code repository" as repositories
    queue "Message queue" as pubsub
  }

  validatorengine - -> API
  mongo - -> pd
  refresher - -> pubsub
  API - -> storage
  API - -> pubsub
  Workspace - -> storage
  Snapshot - -> repositories
}


actor User
User - -> Ingress

interface "IATI Registry" as iati
iati <- - refresher

@enduml

PlantUML version 1.2018.06(Mon May 21 10:34:53 UTC 2018)
(GPL source distribution)
Java Runtime: OpenJDK Runtime Environment
JVM: OpenJDK 64-Bit Server VM
Java Version: 10.0.1+10-Debian-4
Operating System: Linux
OS Version: 4.13.0-41-generic
Default Encoding: UTF-8
Language: en
Country: null
--></g></svg>